# xmcd CD database file
#
# Track frame offsets:
#	170
#	14312
#	23935
#	43945
#	56275
#	65832
#	76990
#	93435
#	106850
#	118135
#	132925
#	157257
#	180817
#	196540
#	211970
#	229590
#	249807
#	260200
#	274905
#	293695
#
# Disc length: 4266 seconds
#
# Revision: 3
# Processed by: cddbd v1.5.2PL0 Copyright (c) Steve Scherf et al.
# Submitted via: CDex 1.70beta2
#
DISCID=1410a814
DTITLE=Glen Campbell - The Concert Collection
DYEAR=1997
DGENRE=Country
TTITLE0=Rhinestone Cowboy
TTITLE1=Gentle on My Mind
TTITLE2=Wichita Lineman/Galveston/Country Boy
TTITLE3=By the Time I Get to Phoenix
TTITLE4=Dreams of the Everyday Housewife
TTITLE5=Heartache Number Three
TTITLE6=Please Come to Boston
TTITLE7=Trials and Tribulations
TTITLE8=It's Only Make Believe
TTITLE9=Crying
TTITLE10=Bluegrass Medley
TTITLE11=Milk Cow Blues
TTITLE12=Rollin' (In My Sweet Baby's Arms)
TTITLE13=I'm So Lonesome I Could Cry
TTITLE14=Southern Nights
TTITLE15=Amazing Grace
TTITLE16=Try a Little Kindness
TTITLE17=In Your Loving Arms Again
TTITLE18=It's Your World Boys and Girls
TTITLE19=Mull of Kintyre
EXTD=CDDBSort:campbell_glen,concert_collection - YEAR: 1997
EXTT0=
EXTT1=
EXTT2=
EXTT3=
EXTT4=
EXTT5=
EXTT6=
EXTT7=
EXTT8=
EXTT9=
EXTT10=
EXTT11=
EXTT12=
EXTT13=
EXTT14=
EXTT15=
EXTT16=
EXTT17=
EXTT18=
EXTT19=
PLAYORDER=
